<?xml version="1.0" encoding="UTF-8"?><!DOCTYPE svg PUBLIC "-//W3C//DTD SVG 1.1//EN" "http://www.w3.org/Graphics/SVG/1.1/DTD/svg11.dtd"><!-- Creator: CorelDRAW 2019 (64-Bit) --><svg width="3199" height="3116" viewBox="10638.167938931 0 84655.470737913 82460.889929742" xmlns="http://www.w3.org/2000/svg" xmlns:xlink="http://www.w3.org/1999/xlink" xml:space="preserve" version="1.1" style="shape-rendering:geometricPrecision; text-rendering:geometricPrecision; image-rendering:optimizeQuality; fill-rule:evenodd; clip-rule:evenodd">
 <defs xmlns="http://www.w3.org/2000/svg">
  <style type="text/css">
   <![CDATA[
    .fil2 {fill:black}
    .fil0 {fill:#D7A81C}
    .fil1 {fill:black;fill-rule:nonzero}
   ]]>
  </style>
 </defs>
 <g xmlns="http://www.w3.org/2000/svg" id="Layer_x0020_1">
  <metadata id="CorelCorpID_0Corel-Layer"/>
  <path class="fil0" d="M47593.85 79744.36c-1631.67,-6273.88 -3263.36,-12547.76 -4895.02,-18821.64 1091.85,-975.43 2183.69,-1950.9 3203.6,-3053.36 1019.92,-1102.47 1967.91,-2331.96 2938.82,-4193.38 970.87,-1861.38 1964.68,-4354.72 2958.48,-6848.03 -45.96,1332.92 -91.93,2665.81 -450.95,4265.79 -359.02,1600.01 -1031.07,3467.1 -2134.08,5110.16 -1103.04,1643.08 -2636.99,3062.14 -4170.96,4481.2 1217.74,6351.66 2435.46,12703.3 3653.2,19054.96 -367.7,1.43 -735.39,2.87 -1103.09,4.3z"/>
  <path class="fil0" d="M56472.45 79721.37l4389.84 -16879.16 -1407.23 -1228.54 45.96 -2411.83c-455.22,-433.51 -902.93,-880.23 -1337.57,-1350.06 -1019.66,-1102.2 -1967.42,-2331.39 -2938.08,-4192.34 -970.64,-1860.93 -1964.2,-4353.65 -2957.76,-6846.34 45.95,1332.59 91.91,2665.15 450.84,4264.73 358.93,1599.61 1030.81,3466.25 2133.55,5108.89 1102.77,1642.68 2636.34,3061.39 4169.94,4480.1 -1217.44,6350.09 -2434.86,12700.16 -3652.3,19050.25 367.6,1.44 735.21,2.87 1102.81,4.3z"/>
  <path class="fil0" d="M12561.55 35603.13c6273.88,-1631.67 12547.76,-3263.36 18821.64,-4895.02 975.44,1091.86 1950.9,2183.69 3053.36,3203.6 1102.47,1019.92 2331.96,1967.92 4193.38,2938.82 1861.39,970.87 4354.72,1964.68 6848.03,2958.48 -1332.92,-45.96 -2665.81,-91.93 -4265.79,-450.95 -1600.01,-359.02 -3467.1,-1031.07 -5110.15,-2134.08 -1643.08,-1103.04 -3062.15,-2636.99 -4481.21,-4170.96 -6351.66,1217.74 -12703.3,2435.46 -19054.96,3653.2 -1.43,-367.7 -2.86,-735.39 -4.3,-1103.09z"/>
  <path class="fil0" d="M12584.54 44481.74l16879.16 4389.83 1228.54 -1407.22 2411.83 45.95c433.51,-455.22 880.24,-902.93 1350.07,-1337.56 1102.19,-1019.67 2331.38,-1967.43 4192.34,-2938.09 1860.92,-970.64 4353.64,-1964.2 6846.33,-2957.76 -1332.58,45.96 -2665.15,91.91 -4264.73,450.84 -1599.61,358.93 -3466.24,1030.81 -5108.89,2133.55 -1642.67,1102.77 -3061.39,2636.34 -4480.1,4169.94 -6350.09,-1217.44 -12700.16,-2434.86 -19050.25,-3652.3 -1.43,367.6 -2.87,735.21 -4.3,1102.82z"/>
  <path class="fil0" d="M91561.55 44496.02c-6273.88,1631.67 -12547.76,3263.36 -18821.64,4895.02 -975.43,-1091.86 -1950.89,-2183.69 -3053.36,-3203.6 -1102.46,-1019.92 -2331.96,-1967.92 -4193.37,-2938.82 -1861.39,-970.87 -4354.73,-1964.68 -6848.03,-2958.48 1332.91,45.96 2665.81,91.93 4265.79,450.95 1600,359.02 3467.1,1031.07 5110.15,2134.08 1643.08,1103.04 3062.14,2636.99 4481.2,4170.96 6351.67,-1217.74 12703.3,-2435.46 19054.96,-3653.2 1.44,367.7 2.87,735.39 4.3,1103.09z"/>
  <path class="fil0" d="M91538.56 35617.41l-16879.16 -4389.83 -1228.54 1407.22 -2411.82 -45.95c-433.52,455.22 -880.24,902.93 -1350.07,1337.56 -1102.2,1019.67 -2331.39,1967.43 -4192.34,2938.09 -1860.93,970.64 -4353.65,1964.2 -6846.34,2957.76 1332.59,-45.96 2665.15,-91.91 4264.73,-450.84 1599.62,-358.93 3466.25,-1030.81 5108.9,-2133.55 1642.67,-1102.77 3061.38,-2636.34 4480.09,-4169.94 6350.1,1217.44 12700.16,2434.86 19050.26,3652.3 1.43,-367.6 2.86,-735.21 4.29,-1102.82z"/>
  <path class="fil0" d="M76917.2 71246.54c-5590.07,-3282.54 -11180.15,-6565.06 -16770.22,-9847.61 82.33,-1461.79 164.61,-2923.59 106.24,-4424.34 -58.37,-1500.75 -257.42,-3040.47 -887.11,-5043.22 -629.68,-2002.71 -1690.01,-4468.49 -2750.32,-6934.25 910.01,975.02 1820.01,1950.01 2697.5,3335.24 877.51,1385.24 1722.53,3180.68 2104.4,5122.44 381.87,1941.8 300.63,4029.9 219.37,6118.01 5352.38,3630.23 10704.72,7260.46 16057.1,10890.69 -258.99,261.01 -517.98,522.03 -776.96,783.04z"/>
  <path class="fil0" d="M83179.06 64952.16l-8831.28 -15039.45 -1863.77 126.35 -1672.93 -1737.91c-628.42,15.34 -1260.89,16.04 -1900.44,-8.84 -1500.38,-58.36 -3039.72,-257.36 -5041.97,-886.89 -2002.22,-629.54 -4467.39,-1689.6 -6932.54,-2749.65 974.77,909.79 1949.53,1819.56 3334.41,2696.83 1384.9,877.3 3179.9,1722.11 5121.18,2103.89 1941.32,381.77 4028.9,300.55 6116.5,219.31 3629.33,5351.06 7258.66,10702.08 10887.99,16053.13 260.95,-258.92 521.9,-517.84 782.85,-776.77z"/>
  <path class="fil0" d="M21073.53 64970.89c3282.54,-5590.06 6565.06,-11180.15 9847.6,-16770.21 1461.8,82.32 2923.6,164.61 4424.35,106.24 1500.75,-58.37 3040.47,-257.42 5043.22,-887.11 2002.71,-629.69 4468.49,-1690.02 6934.25,-2750.32 -975.02,910.01 -1950.02,1820 -3335.24,2697.49 -1385.24,877.51 -3180.68,1722.54 -5122.45,2104.41 -1941.79,381.86 -4029.89,300.62 -6118,219.37 -3630.23,5352.38 -7260.46,10704.72 -10890.69,16057.09 -261.01,-258.98 -522.03,-517.97 -783.04,-776.96z"/>
  <path class="fil0" d="M27367.91 71232.76l15039.44 -8831.29 -126.34 -1863.76 1737.91 -1672.93c-15.34,-628.43 -16.04,-1260.89 8.84,-1900.44 58.36,-1500.38 257.36,-3039.72 886.89,-5041.98 629.53,-2002.21 1689.6,-4467.39 2749.64,-6932.54 -909.78,974.78 -1819.55,1949.54 -2696.83,3334.42 -877.29,1384.89 -1722.11,3179.9 -2103.88,5121.18 -381.77,1941.32 -300.55,4028.9 -219.32,6116.5 -5351.05,3629.33 -10702.07,7258.66 -16053.12,10887.99 258.92,260.95 517.84,521.9 776.77,782.85z"/>
  <path class="fil0" d="M27272.08 8993.85c5590.06,3282.54 11180.15,6565.06 16770.21,9847.6 -82.32,1461.8 -164.61,2923.6 -106.24,4424.35 58.37,1500.75 257.42,3040.46 887.11,5043.21 629.69,2002.72 1690.01,4468.5 2750.32,6934.26 -910.01,-975.02 -1820,-1950.02 -2697.5,-3335.24 -877.51,-1385.24 -1722.53,-3180.69 -2104.4,-5122.45 -381.86,-1941.79 -300.63,-4029.89 -219.37,-6118 -5352.38,-3630.23 -10704.72,-7260.46 -16057.1,-10890.69 258.99,-261.01 517.98,-522.03 776.97,-783.04z"/>
  <path class="fil0" d="M21010.21 15288.22l8831.29 15039.45 1863.76 -126.35 1672.93 1737.92c628.43,-15.34 1260.89,-16.04 1900.44,8.84 1500.38,58.36 3039.72,257.36 5041.98,886.89 2002.21,629.53 4467.38,1689.6 6932.54,2749.64 -974.78,-909.78 -1949.54,-1819.55 -3334.42,-2696.83 -1384.9,-877.29 -3179.9,-1722.11 -5121.18,-2103.88 -1941.32,-381.77 -4028.9,-300.55 -6116.5,-219.32 -3629.33,-5351.05 -7258.66,-10702.07 -10887.99,-16053.13 -260.95,258.93 -521.9,517.85 -782.85,776.77z"/>
  <path class="fil0" d="M56472.45 574.6l4389.84 16879.16 -1407.23 1228.54 45.96 2411.83c-455.22,433.52 -902.93,880.24 -1337.57,1350.07 -1019.66,1102.19 -1967.42,2331.38 -2938.08,4192.34 -970.64,1860.93 -1964.2,4353.64 -2957.76,6846.34 45.95,-1332.59 91.91,-2665.15 450.84,-4264.74 358.93,-1599.61 1030.81,-3466.24 2133.55,-5108.89 1102.77,-1642.67 2636.34,-3061.39 4169.94,-4480.1 -1217.44,-6350.09 -2434.86,-12700.16 -3652.3,-19050.25 367.6,-1.43 735.21,-2.86 1102.81,-4.3z"/>
  <path class="fil0" d="M51742.41 28176.16c-102.91,-282.77 -150.28,-420.72 -371.37,-949.81 -221.08,-529.1 -704.39,-1592.67 -1274.24,-2566.66 -569.85,-974 -1297.3,-2028.22 -2046.03,-2917.61 -748.72,-889.4 -1518.8,-1614.02 -2288.85,-2338.62l3547.15 -18828.86 2749.53 34.39 2645.75 -34.39 3547.15 18828.86c-770.05,724.6 -1540.13,1449.22 -2288.85,2338.62 -748.73,889.39 -1476.18,1943.61 -2046.03,2917.61 -569.85,973.99 -1070.2,2078.36 -1274.24,2566.66 -204.05,488.29 -213.06,713.48 -298.64,941.83l0 -7580.79c441.85,-129.79 764.49,-485.98 764.49,-1022.04 0,-536.06 -476.89,-1065.16 -1065.16,-1065.16 -588.26,0 -1065.15,529.1 -1065.15,1065.16 0,536.06 322.63,892.25 764.49,1022.04l0 7588.77z"/>
  <path class="fil0" d="M47595.56 522.66l-4389.83 16879.16 1407.22 1228.54 -45.95 2411.82c455.21,433.52 902.93,880.24 1337.56,1350.07 1019.67,1102.2 1967.43,2331.39 2938.09,4192.34 970.64,1860.93 1964.2,4353.65 2957.76,6846.34 -45.96,-1332.59 -91.91,-2665.15 -450.84,-4264.73 -358.93,-1599.62 -1030.82,-3466.25 -2133.56,-5108.9 -1102.76,-1642.67 -2636.34,-3061.38 -4169.93,-4480.09 1217.44,-6350.1 2434.86,-12700.16 3652.3,-19050.26 -367.61,-1.43 -735.21,-2.86 -1102.82,-4.29z"/>
  <path class="fil0" d="M52271.01 52119.82c102.91,282.77 150.28,420.71 371.37,949.81 221.08,529.09 704.39,1592.67 1274.24,2566.66 569.85,973.99 1297.3,2028.21 2046.03,2917.61 748.72,889.39 1518.8,1614.02 2288.85,2338.62l-3547.15 18828.85 -2749.53 -34.39 -2645.75 34.39 -3547.15 -18828.85c770.05,-724.6 1540.13,-1449.23 2288.85,-2338.62 748.73,-889.4 1476.18,-1943.62 2046.03,-2917.61 569.85,-973.99 1070.2,-2078.37 1274.24,-2566.66 204.05,-488.3 213.06,-713.48 298.64,-941.84l0 7580.79c-441.85,129.79 -764.49,485.99 -764.49,1022.04 0,536.06 476.89,1065.16 1065.16,1065.16 588.26,0 1065.15,-529.1 1065.15,-1065.16 0,-536.05 -322.63,-892.25 -764.49,-1022.04l0 -7588.76z"/>
  <path class="fil0" d="M43498.31 31834.6c-272.71,-127.19 -403.75,-191.23 -934.21,-409.03 -530.46,-217.8 -1624.26,-628.11 -2715.92,-913.88 -1091.66,-285.77 -2351.5,-516.83 -3509.83,-616.3 -1158.33,-99.46 -2215.24,-67.32 -3272.11,-35.18l-10805.81 -15822.23 1968.54 -1919.9 1846.51 -1895.14 15822.22 10805.8c-32.14,1056.88 -64.28,2113.79 35.19,3272.12 99.47,1158.32 330.53,2418.16 616.3,3509.82 285.77,1091.66 712.88,2226.37 913.88,2715.93 200.99,489.55 353.85,655.16 454.81,877.15l-5360.43 -5360.43c220.66,-404.22 196.93,-884.22 -182.12,-1263.27 -379.05,-379.06 -1090.39,-415.97 -1506.35,0 -415.97,415.96 -379.06,1127.3 0,1506.35 379.05,379.05 859.05,402.78 1263.27,182.12l5366.06 5366.07z"/>
  <path class="fil0" d="M40186.09 40280.28c-282.77,102.91 -420.71,150.28 -949.81,371.37 -529.1,221.08 -1592.67,704.39 -2566.66,1274.24 -973.99,569.85 -2028.22,1297.3 -2917.61,2046.03 -889.4,748.72 -1614.02,1518.8 -2338.62,2288.85l-18828.86 -3547.14 34.39 -2749.54 -34.39 -2645.75 18828.86 -3547.15c724.6,770.05 1449.22,1540.13 2338.62,2288.86 889.39,748.72 1943.62,1476.18 2917.61,2046.03 973.99,569.85 2078.36,1070.19 2566.66,1274.24 488.29,204.04 713.48,213.05 941.83,298.64l-7580.79 0c-129.79,-441.86 -485.98,-764.5 -1022.04,-764.5 -536.06,0 -1065.16,476.9 -1065.16,1065.16 0,588.26 529.1,1065.16 1065.16,1065.16 536.06,0 892.25,-322.64 1022.04,-764.5l7588.77 0z"/>
  <path class="fil0" d="M63937.02 39818.87c282.77,-102.91 420.71,-150.28 949.81,-371.37 529.09,-221.08 1592.67,-704.39 2566.66,-1274.24 973.99,-569.85 2028.21,-1297.3 2917.61,-2046.03 889.39,-748.72 1614.02,-1518.8 2338.61,-2288.85l18828.86 3547.14 -34.39 2749.54 34.39 2645.75 -18828.86 3547.15c-724.59,-770.05 -1449.22,-1540.13 -2338.61,-2288.86 -889.4,-748.72 -1943.62,-1476.18 -2917.61,-2046.03 -973.99,-569.85 -2078.37,-1070.19 -2566.66,-1274.24 -488.3,-204.04 -713.48,-213.05 -941.84,-298.64l7580.79 0c129.79,441.86 485.99,764.5 1022.04,764.5 536.06,0 1065.16,-476.9 1065.16,-1065.16 0,-588.26 -529.1,-1065.16 -1065.16,-1065.16 -536.05,0 -892.25,322.64 -1022.04,764.5l-7588.76 0z"/>
  <path class="fil0" d="M43914.29 48744.64c-127.19,272.71 -191.23,403.75 -409.03,934.21 -217.8,530.46 -628.1,1624.27 -913.88,2715.93 -285.77,1091.66 -516.83,2351.49 -616.3,3509.82 -99.46,1158.33 -67.32,2215.24 -35.18,3272.12l-15822.23 10805.8 -1919.9 -1968.54 -1895.14 -1846.51 10805.8 -15822.22c1056.88,32.14 2113.79,64.28 3272.12,-35.19 1158.32,-99.47 2418.16,-330.53 3509.82,-616.3 1091.66,-285.77 2226.37,-712.88 2715.93,-913.88 489.55,-200.99 655.16,-353.85 877.15,-454.81l-5360.43 5360.43c-404.22,-220.66 -884.22,-196.93 -1263.27,182.12 -379.06,379.05 -415.97,1090.39 0,1506.36 415.96,415.96 1127.3,379.05 1506.35,0 379.06,-379.05 402.78,-859.06 182.12,-1263.27l5366.07 -5366.07z"/>
  <path class="fil0" d="M60690.94 48405.78c272.72,127.18 403.76,191.22 934.21,409.02 530.46,217.8 1624.27,628.11 2715.93,913.88 1091.66,285.77 2351.5,516.83 3509.82,616.3 1158.33,99.47 2215.24,67.33 3272.12,35.19l10805.8 15822.22 -1968.53 1919.91 -1846.51 1895.14 -15822.22 -10805.8c32.14,-1056.88 64.28,-2113.79 -35.19,-3272.12 -99.47,-1158.33 -330.53,-2418.16 -616.3,-3509.82 -285.77,-1091.66 -712.89,-2226.37 -913.88,-2715.93 -201,-489.56 -353.86,-655.16 -454.81,-877.15l5360.43 5360.43c-220.67,404.21 -196.94,884.22 182.11,1263.27 379.05,379.05 1090.4,415.97 1506.36,0 415.97,-415.96 379.05,-1127.31 0,-1506.36 -379.05,-379.05 -859.06,-402.78 -1263.27,-182.11l-5366.07 -5366.07z"/>
  <path class="fil0" d="M83004.71 15331.9c-3282.54,5590.07 -6565.06,11180.15 -9847.6,16770.22 -1461.8,-82.33 -2923.6,-164.62 -4424.35,-106.24 -1500.75,58.37 -3040.47,257.42 -5043.22,887.11 -2002.71,629.68 -4468.49,1690.01 -6934.25,2750.32 975.02,-910.01 1950.02,-1820.01 3335.24,-2697.5 1385.24,-877.51 3180.68,-1722.54 5122.44,-2104.4 1941.8,-381.87 4029.9,-300.63 6118.01,-219.37 3630.23,-5352.38 7260.46,-10704.72 10890.69,-16057.1 261.01,258.99 522.03,517.98 783.04,776.96z"/>
  <path class="fil0" d="M60163.97 31558.15c127.18,-272.71 191.22,-403.75 409.02,-934.21 217.8,-530.46 628.11,-1624.27 913.88,-2715.93 285.77,-1091.66 516.83,-2351.49 616.3,-3509.82 99.47,-1158.33 67.33,-2215.24 35.19,-3272.12l15822.22 -10805.8 1919.9 1968.54 1895.15 1846.51 -10805.81 15822.22c-1056.87,-32.14 -2113.78,-64.28 -3272.11,35.19 -1158.33,99.47 -2418.16,330.53 -3509.83,616.3 -1091.66,285.77 -2226.36,712.88 -2715.92,913.88 -489.56,200.99 -655.16,353.85 -877.15,454.81l5360.43 -5360.43c404.21,220.66 884.22,196.93 1263.27,-182.12 379.05,-379.05 415.97,-1090.39 0,-1506.36 -415.97,-415.96 -1127.31,-379.05 -1506.36,0 -379.05,379.05 -402.78,859.06 -182.11,1263.27l-5366.07 5366.07z"/>
  <path class="fil0" d="M76710.34 9070.04c-5590.07,3282.54 -11180.15,6565.06 -16770.22,9847.6 82.33,1461.8 164.62,2923.6 106.24,4424.35 -58.37,1500.74 -257.42,3040.46 -887.11,5043.21 -629.68,2002.72 -1690.01,4468.49 -2750.32,6934.26 910.01,-975.02 1820.01,-1950.02 2697.5,-3335.24 877.51,-1385.24 1722.53,-3180.69 2104.4,-5122.45 381.87,-1941.8 300.63,-4029.89 219.37,-6118.01 5352.38,-3630.22 10704.72,-7260.45 16057.1,-10890.68 -258.99,-261.02 -517.98,-522.03 -776.96,-783.04z"/>
  <g id="_2412157363200">
   <polygon class="fil1" points="88134.34,103907.46 88134.34,97583.14 86761.1,97583.14 86761.1,101477.11 83797.66,97583.14 82514.72,97583.14 82514.72,103907.46 83888.03,103907.46 83888.03,99886.97 86950.83,103907.46 "/>
   <polygon class="fil1" points="73859.34,103907.46 73859.34,97583.14 72486.1,97583.14 72486.1,101477.11 69522.65,97583.14 68239.71,97583.14 68239.71,103907.46 69613.02,103907.46 69613.02,99886.97 72675.82,103907.46 "/>
   <path class="fil1" d="M61370.34 100707.09l0 -18.04c0,-445.76 -81.31,-859.86 -243.93,-1242.29 -162.63,-382.49 -393.01,-715.27 -691.22,-998.34 -298.14,-283.14 -653.47,-504.47 -1066.04,-664.11 -412.64,-159.59 -865.87,-239.38 -1359.75,-239.38l-2466.52 0 0 6324.32 2466.52 0c493.88,0 947.11,-81.31 1359.75,-243.93 412.57,-162.62 767.9,-385.47 1066.04,-668.61 298.21,-283.07 528.59,-617.37 691.22,-1002.84 162.62,-385.47 243.93,-801.08 243.93,-1246.78zm-1424.54 56.26c0,283.07 -46.67,539.1 -140.01,767.96 -93.41,228.87 -222.92,427.65 -388.51,596.29 -165.67,168.64 -365.91,298.14 -600.85,388.51 -234.88,90.37 -493.88,135.52 -776.95,135.52l-1075.17 0 0 -3812.65 1075.17 0c283.07,0 542.07,46.67 776.95,140.01 234.94,93.34 435.18,224.37 600.85,393.01 165.59,168.64 295.1,370.46 388.51,605.34 93.34,234.88 140.01,490.91 140.01,767.96l0 18.05z"/>
   <polygon class="fil1" points="54082.25,103907.46 54082.25,97583.14 52690.89,97583.14 52690.89,103907.46 "/>
   <path class="fil1" d="M51528.23 101906.79l0 -18.39c0,-281.4 -45.87,-523.05 -137.56,-724.95 -91.69,-201.84 -229.25,-377.75 -409.5,-527.62 -180.17,-149.86 -403.11,-278.37 -665.53,-385.4 -262.43,-107.09 -562.82,-203.44 -899.58,-289.05 -284.56,-73.46 -520.13,-137.65 -708.29,-192.7 -186.49,-55.06 -333.56,-113.21 -442.6,-174.38 -107.51,-61.16 -181.84,-129.98 -222.93,-206.46 -41.09,-76.48 -61.63,-166.72 -61.63,-270.72l0 -18.33c0,-159.07 71.14,-292.14 213.42,-399.17 142.28,-107.1 355.71,-160.61 640.27,-160.61 284.57,0 569.13,56.6 853.7,169.74 284.56,113.2 575.44,267.7 872.64,463.42l758.89 -1064.42c-341.48,-263.07 -716.2,-464.97 -1124.03,-605.7 -407.9,-140.67 -855.3,-211.03 -1342.25,-211.03 -341.48,0 -654.5,45.85 -937.47,137.64 -283.04,91.78 -528.04,223.32 -732.03,394.6 -203.91,171.28 -362.02,374.66 -475.84,610.2 -112.23,235.54 -169.15,500.15 -169.15,793.77l0 18.4c0,318.06 52.13,584.21 156.51,798.33 104.32,214.13 252.92,393.06 442.68,536.82 189.68,143.75 422.12,264.54 693.99,362.44 273.53,97.89 577.04,186.59 913.8,266.15 278.25,67.28 505.9,131.54 679.83,192.71 173.87,61.16 309.83,122.33 409.43,183.5 98.07,61.17 164.42,126.97 199.2,197.27 34.77,70.36 52.19,151.47 52.19,243.19l0 18.4c0,189.61 -83.77,338 -251.39,445.02 -167.55,107.03 -403.11,160.61 -706.69,160.61 -379.38,0 -728.77,-70.37 -1048.11,-211.1 -319.4,-140.66 -630.83,-330.34 -934.34,-568.9l-863.21 1000.23c398.4,348.68 841.07,607.18 1327.95,775.37 486.96,168.27 983.35,252.4 1489.25,252.4 360.5,0 689.34,-44.39 984.94,-133.08 295.67,-88.7 551.78,-217.21 765.21,-385.41 213.42,-168.26 379.44,-376.27 499.58,-624.03 118.55,-247.76 178.65,-530.7 178.65,-848.76z"/>
   <polygon class="fil1" points="45315.8,103775.25 45315.8,102537.46 42346.14,102537.46 42346.14,101209.37 45253.4,101209.37 45253.4,99971.59 42346.14,99971.59 42346.14,98688.65 45296.89,98688.65 45296.89,97450.93 40972.84,97450.93 40972.84,103775.25 "/>
   <path class="fil1" d="M40102.01 103880.23l-1544.92 -2436.77c403.52,-145.57 537.91,-374.1 787.8,-685.53 249.88,-311.36 374.96,-714.62 374.96,-1209.43l0 -17.52c0,-634.56 -209.36,-1129.43 -627.95,-1484.49 -418.59,-355.06 -1004.43,-532.69 -1757.26,-532.69l-2891.12 0 0 6366.43 1540.03 0 0 -2471.74 1145.63 0 1355.26 2471.74 1617.57 0zm-1824.15 -4353.08c0,254.71 -84.49,458.52 -253.46,611.42 -168.97,152.84 -411.32,229.26 -727.04,229.26l-1296.23 0 0 -1706.88 1271.3 0c315.73,0 562.24,70.8 739.48,212.27 177.3,141.53 265.95,353.87 265.95,636.94l0 16.99z"/>
   <path class="fil1" d="M33333.32 99688.78l0 -18.05c0,-325.24 -57.78,-621.93 -173.27,-889.93 -115.42,-268.06 -280.89,-498.44 -496.26,-691.15 -215.31,-192.76 -477.56,-341.84 -786.54,-447.28 -308.99,-105.37 -660.15,-158.06 -1053.42,-158.06l-2678.06 0 0 6324.32 1638.73 0 0 -1897.27 898.85 0c368.29,0 713.23,-46.73 1034.71,-140.08 321.48,-93.34 602.43,-233.35 842.73,-420.11 240.3,-186.68 429.24,-418.59 566.54,-695.64 137.37,-277.12 205.99,-599.33 205.99,-966.75zm-1362.66 -137.63c0,252.46 -96.32,464.33 -289.09,635.42 -192.77,171.15 -463.81,256.76 -813.12,256.76l-1102.26 0 0 -1801.15 1075.16 0c349.31,0 624.91,75.75 826.67,227.27 201.76,151.45 302.64,373.11 302.64,664.91l0 16.79z"/>
   <polygon class="fil2" points="20215.65,97557.23 17742.72,100284.41 17454.16,100284.41 17454.16,97507.78 15983.74,97507.78 15983.74,103848.17 17454.16,103848.17 17454.16,101098.84 17694.39,101098.84 20243.81,103880.49 21882.34,103858.61 19208.97,100662.07 21913.87,97541.3 "/>
   <path class="fil1" d="M81527.28 103755.22l-2710.39 -6369.54 -1282.93 0 -2710.45 6369.54 1418.45 0 578.24 -1418.46 2674.29 0 578.24 1418.46 1454.55 0zm-2461.96 -2328.62l-1780.06 0 890 -2153.1 890.06 2153.1z"/>
   <polygon class="fil1" points="26810.48,103775.25 26810.48,102537.46 23840.82,102537.46 23840.82,101209.37 26748.07,101209.37 26748.07,99971.59 23840.82,99971.59 23840.82,98688.65 26791.57,98688.65 26791.57,97450.93 22467.51,97450.93 22467.51,103775.25 "/>
   <polygon class="fil1" points="66855.24,103775.25 66855.24,102537.46 63885.58,102537.46 63885.58,101209.37 66792.83,101209.37 66792.83,99971.59 63885.58,99971.59 63885.58,98688.65 66836.33,98688.65 66836.33,97450.93 62512.27,97450.93 62512.27,103775.25 "/>
  </g>
  <polygon class="fil1" points="103546.31,93923.99 103546.31,87599.67 102154.96,87599.67 102154.96,93923.99 "/>
  <path class="fil1" d="M100881.08 92053.82l0 -18.11c0,-277.05 -43.7,-514.97 -131.03,-713.76 -87.32,-198.71 -218.35,-371.91 -390.03,-519.47 -171.61,-147.55 -383.95,-274.07 -633.9,-379.45 -249.95,-105.44 -536.06,-200.3 -856.81,-284.59 -271.04,-72.32 -495.4,-135.52 -674.62,-189.73 -177.63,-54.2 -317.71,-111.45 -421.56,-171.68 -102.4,-60.22 -173.2,-127.98 -212.34,-203.28 -39.14,-75.29 -58.7,-164.14 -58.7,-266.54l0 -18.05c0,-156.6 67.76,-287.63 203.28,-393 135.51,-105.44 338.79,-158.13 609.83,-158.13 271.04,0 542.08,55.73 813.12,167.12 271.04,111.46 548.09,263.57 831.16,456.27l722.81 -1047.99c-325.24,-259.01 -682.15,-457.8 -1070.6,-596.36 -388.51,-138.49 -814.63,-207.77 -1278.44,-207.77 -325.25,0 -623.39,45.15 -892.91,135.52 -269.58,90.37 -502.94,219.87 -697.23,388.51 -194.22,168.64 -344.81,368.88 -453.23,600.78 -106.89,231.9 -161.1,492.43 -161.1,781.52l0 18.11c0,313.15 49.65,575.2 149.07,786.01 99.36,210.82 240.9,386.99 421.63,528.53 180.67,141.53 402.06,260.46 661.01,356.84 260.52,96.39 549.61,183.71 870.36,262.05 265.02,66.24 481.85,129.5 647.52,189.73 165.6,60.22 295.1,120.44 389.96,180.67 93.41,60.22 156.61,125.01 189.73,194.22 33.12,69.28 49.71,149.14 49.71,239.44l0 18.11c0,186.69 -79.79,332.79 -239.44,438.16 -159.58,105.37 -383.95,158.13 -673.1,158.13 -361.34,0 -694.12,-69.28 -998.28,-207.84 -304.22,-138.5 -600.85,-325.25 -889.93,-560.13l-822.17 984.8c379.45,343.29 801.08,597.8 1264.82,763.4 463.81,165.67 936.6,248.5 1418.46,248.5 343.36,0 656.57,-43.7 938.12,-131.03 281.62,-87.32 525.55,-213.85 728.83,-379.45 203.28,-165.66 361.41,-370.46 475.84,-614.4 112.91,-243.93 170.16,-522.51 170.16,-835.66z"/>
  <polygon class="fil1" points="88331.73,93923.99 85639.39,90282.95 88214.32,87599.67 86533.82,87599.67 83967.94,90364.26 83967.94,87599.67 82576.59,87599.67 82576.59,93923.99 83967.94,93923.99 83967.94,91990.56 84699.75,91231.65 86660.35,93923.99 "/>
  <polygon class="fil1" points="80995.51,93923.99 80995.51,87599.67 79604.15,87599.67 79604.15,93923.99 "/>
  <polygon class="fil1" points="78023.01,93923.99 78023.01,87599.67 76649.77,87599.67 76649.77,91493.63 73686.32,87599.67 72403.39,87599.67 72403.39,93923.99 73776.69,93923.99 73776.69,89903.5 76839.49,93923.99 "/>
  <path class="fil1" d="M71315.46 91168.39l0 -3568.72 -1391.35 0 0 3622.92c0,505.92 -120.45,885.44 -361.41,1138.37 -240.89,252.99 -575.19,379.45 -1002.84,379.45 -427.64,0 -761.95,-130.96 -1002.84,-393.01 -240.96,-261.98 -361.41,-652.01 -361.41,-1169.96l0 -3577.77 -1391.35 0 0 3613.87c0,933.63 243.93,1635.29 731.8,2105.11 487.87,469.82 1156.48,704.7 2005.75,704.7 421.57,0 804.06,-58.7 1147.42,-176.18 343.3,-117.4 635.42,-295.1 876.32,-533.02 240.96,-237.92 426.19,-534.54 555.69,-889.93 129.44,-355.39 194.22,-773.98 194.22,-1255.83z"/>
  <polygon class="fil1" points="60980.5,91235.95 58933.3,87599.67 57595.29,87599.67 57595.29,93923.99 59104.19,93923.99 59104.19,90626.77 60717.79,93049.26 60980.5,93051.71 61243.21,93049.26 62856.81,90626.77 62856.81,93923.99 64365.71,93923.99 64365.71,87599.67 63027.7,87599.67 "/>
  <path class="fil1" d="M33259.73 90802.29l0 -18.45c0,-461.89 -78.4,-894.49 -235.07,-1297.74 -156.74,-403.39 -376.22,-754.42 -658.3,-1053.09 -282.07,-298.67 -616.97,-535.79 -1004.43,-711.24 -387.58,-175.52 -812.19,-263.24 -1273.81,-263.24 -461.69,0 -887.68,87.72 -1278.11,263.24 -390.36,175.45 -726.65,415.68 -1008.73,720.5 -282.14,304.82 -503.01,658.89 -662.59,1062.27 -159.58,403.32 -239.37,835.92 -239.37,1297.75l0 18.51c0,461.89 78.4,894.42 235.14,1297.74 156.67,403.39 376.15,754.35 658.23,1053.02 282.08,298.67 616.97,535.8 1004.49,711.31 387.59,175.52 812.19,263.24 1273.82,263.24 461.62,0 887.62,-87.72 1278.11,-263.24 390.36,-175.51 726.65,-415.68 1008.73,-720.5 282.14,-304.82 502.94,-658.89 662.52,-1062.27 159.65,-403.32 239.37,-835.99 239.37,-1297.81zm-1446.28 18.04c0,271.04 -42.45,525.55 -127.33,763.47 -84.94,237.92 -202.75,447.22 -353.4,627.89 -150.6,180.73 -332.79,322.27 -546.44,424.67 -213.73,102.4 -446.49,153.56 -698.49,153.56 -257.49,0 -491.7,-52.68 -702.65,-158.12 -210.88,-105.38 -394.4,-248.43 -550.54,-429.1 -156.21,-180.74 -276.66,-391.56 -361.61,-632.45 -84.94,-240.96 -127.38,-496.93 -127.38,-767.96l0 -18.05c0,-271.11 42.44,-525.55 127.38,-763.47 84.95,-237.92 202.69,-447.21 353.35,-627.95 150.65,-180.67 331.46,-322.21 542.34,-424.61 210.94,-102.39 445.16,-153.56 702.65,-153.56 252,0 484.83,52.69 698.55,158.06 213.59,105.44 398.49,248.5 554.64,429.17 156.14,180.73 276.66,391.48 361.6,632.44 84.88,240.9 127.33,496.93 127.33,767.97l0 18.04z"/>
  <polygon class="fil1" points="26315.88,88882.61 26315.88,87599.67 21075.71,87599.67 21075.71,88882.61 23000.08,88882.61 23000.08,93923.99 24391.44,93923.99 24391.44,88882.61 "/>
  <polygon class="fil1" points="19793.74,93923.99 19793.74,87599.67 18420.5,87599.67 18420.5,91493.63 15457.06,87599.67 14174.12,87599.67 14174.12,93923.99 15547.43,93923.99 15547.43,89903.5 18610.23,93923.99 "/>
  <path class="fil1" d="M13310.63 93894.11l-2710.38 -6369.54 -1282.94 0 -2710.45 6369.54 1418.46 0 578.23 -1418.46 2674.29 0 578.24 1418.46 1454.55 0zm-2461.95 -2328.62l-1780.06 0 889.99 -2153.1 890.07 2153.1z"/>
  <polygon class="fil2" points="4784.03,87600.73 2311.1,90327.9 2022.54,90327.9 2022.54,87551.28 552.12,87551.28 552.12,93891.66 2022.54,93891.66 2022.54,91142.34 2262.77,91142.34 4812.19,93923.99 6450.71,93902.11 3777.35,90705.57 6482.25,87584.79 "/>
  <polygon class="fil2" points="47951.81,87600.73 45478.88,90327.9 45190.32,90327.9 45190.32,87551.28 43719.9,87551.28 43719.9,93891.66 45190.32,93891.66 45190.32,91142.34 45430.55,91142.34 47979.97,93923.99 49618.5,93902.11 46945.13,90705.57 49650.03,87584.79 "/>
  <path class="fil1" d="M56347.66 90802.29l0 -18.45c0,-461.89 -78.41,-894.49 -235.08,-1297.74 -156.74,-403.39 -376.21,-754.42 -658.29,-1053.09 -282.08,-298.67 -616.98,-535.79 -1004.43,-711.24 -387.59,-175.52 -812.19,-263.24 -1273.82,-263.24 -461.69,0 -887.68,87.72 -1278.11,263.24 -390.36,175.45 -726.65,415.68 -1008.72,720.5 -282.15,304.82 -503.01,658.89 -662.59,1062.27 -159.59,403.32 -239.38,835.92 -239.38,1297.75l0 18.51c0,461.89 78.4,894.42 235.14,1297.74 156.68,403.39 376.15,754.35 658.23,1053.02 282.08,298.67 616.98,535.8 1004.5,711.31 387.58,175.52 812.19,263.24 1273.81,263.24 461.63,0 887.62,-87.72 1278.11,-263.24 390.37,-175.51 726.65,-415.68 1008.73,-720.5 282.14,-304.82 502.94,-658.89 662.52,-1062.27 159.65,-403.32 239.38,-835.99 239.38,-1297.81zm-1446.29 18.04c0,271.04 -42.44,525.55 -127.32,763.47 -84.95,237.92 -202.75,447.22 -353.41,627.89 -150.59,180.73 -332.78,322.27 -546.44,424.67 -213.72,102.4 -446.49,153.56 -698.49,153.56 -257.48,0 -491.7,-52.68 -702.65,-158.12 -210.88,-105.38 -394.39,-248.43 -550.54,-429.1 -156.21,-180.74 -276.65,-391.56 -361.6,-632.45 -84.95,-240.96 -127.39,-496.93 -127.39,-767.96l0 -18.05c0,-271.11 42.44,-525.55 127.39,-763.47 84.95,-237.92 202.68,-447.21 353.34,-627.95 150.66,-180.67 331.46,-322.21 542.34,-424.61 210.95,-102.39 445.17,-153.56 702.65,-153.56 252,0 484.83,52.69 698.55,158.06 213.6,105.44 398.5,248.5 554.64,429.17 156.15,180.73 276.66,391.48 361.61,632.44 84.88,240.9 127.32,496.93 127.32,767.97l0 18.04z"/>
  <path class="fil1" d="M95316.52 93894.11l-2710.38 -6369.54 -1282.94 0 -2710.45 6369.54 1418.46 0 578.23 -1418.46 2674.3 0 578.23 1418.46 1454.55 0zm-2461.95 -2328.62l-1780.06 0 889.99 -2153.1 890.07 2153.1z"/>
  <path class="fil1" d="M40160.9 94050.39l-1544.92 -2436.77c403.52,-145.57 537.92,-374.1 787.8,-685.53 249.89,-311.37 374.96,-714.62 374.96,-1209.43l0 -17.52c0,-634.56 -209.36,-1129.43 -627.95,-1484.5 -418.59,-355.06 -1004.43,-532.69 -1757.26,-532.69l-2891.12 0 0 6366.44 1540.03 0 0 -2471.74 1145.63 0 1355.26 2471.74 1617.57 0zm-1824.15 -4353.08c0,254.71 -84.49,458.52 -253.46,611.42 -168.97,152.84 -411.31,229.26 -727.04,229.26l-1296.23 0 0 -1706.88 1271.31 0c315.72,0 562.24,70.8 739.47,212.27 177.3,141.53 265.95,353.87 265.95,636.94l0 16.99z"/>
  <path class="fil1" d="M20920.43 109806.12c-131.5,0 -253.61,-8.61 -367.12,-25.05l-263.79 1274.35 -373.38 0 637.17 -3066.89 749.9 0c104.11,0 191.78,3.13 263.01,10.17 70.45,7.05 134.64,17.22 190.99,31.31 102.55,24.27 191.78,58.71 267.71,102.55 75.15,44.61 137.77,96.28 187.87,156.55 49.31,59.49 86.88,125.24 111.15,198.04 24.27,72.8 36.79,148.73 36.79,227.79 0,137.77 -25.83,271.62 -78.28,402.34 -51.66,130.72 -135.42,246.57 -249.7,348.33 -115.07,101.76 -265.36,183.96 -450.88,246.58 -185.51,62.62 -406.25,93.93 -661.44,93.93zm-295.88 -358.51c102.54,16.44 209,25.05 318.58,25.05 134.64,0 255.97,-11.74 364.77,-34.44 108.81,-22.7 200.39,-53.23 276.32,-91.59 75.93,-38.35 138.55,-82.19 189.43,-133.07 50.1,-50.1 90.02,-102.54 118.98,-156.55 28.97,-54.8 49.32,-109.59 61.06,-165.17 10.96,-55.57 17.22,-107.24 17.22,-154.98 0,-93.15 -25.05,-172.21 -75.93,-235.62 -50.1,-64.19 -128.37,-111.93 -234.05,-142.46 -36.79,-10.96 -79.84,-18.79 -129.15,-24.27 -50.1,-5.48 -112.72,-7.83 -189.43,-7.83l-486.1 0 -231.7 1120.93z"/>
  <path id="1" class="fil1" d="M24046.03 109181.47c-46.96,-6.26 -93.93,-9.39 -140.11,-9.39 -106.46,0 -202.74,18 -288.85,54.01 -85.32,36 -159.68,84.54 -222.3,146.37 -62.62,61.84 -114.29,133.86 -154.99,216.83 -39.92,83.76 -70.45,171.43 -90.02,264.58l-250.49 1201.55 -355.37 0 454 -2179.23 291.19 0 0 296.67 9.4 0c36.79,-48.53 77.49,-94.72 121.33,-137.77 44.61,-42.27 93.93,-79.84 149.5,-111.94 54.8,-32.09 115.07,-57.14 180.04,-75.92 64.97,-18.01 135.42,-27.4 212.13,-27.4 27.4,0 54.01,0.78 79.84,3.13 25.84,2.35 51.67,6.26 75.93,10.96l-71.23 347.55z"/>
  <path id="2" class="fil1" d="M25960.68 109382.64c0,136.2 -33.65,249.7 -100.97,341.29 -67.32,91.58 -164.38,165.95 -291.98,222.3 -127.59,57.15 -284.14,98.63 -468.88,125.25 -185.51,26.61 -396.08,43.05 -633.26,49.31 -1.56,17.22 -2.34,33.66 -3.13,50.88 -0.78,16.44 -1.56,35.23 -1.56,54.8 0,199.6 50.09,345.2 149.51,437.56 99.41,91.59 248.13,137.77 446.96,137.77 51.66,0 105.67,-3.13 161.25,-10.17 56.36,-6.27 111.93,-16.44 166.73,-28.97 54.79,-12.52 108.02,-27.39 158.9,-43.83 51.66,-15.66 97.85,-33.66 139.33,-53.23l-64.18 321.72c-78.28,34.44 -170.65,64.19 -276.32,88.45 -106.46,24.27 -221.52,36.01 -345.2,36.01 -156.56,0 -290.41,-21.14 -402.35,-64.19 -112.72,-43.05 -205.08,-102.54 -277.88,-180.03 -72.8,-76.72 -126.03,-169.08 -160.47,-274.76 -34.44,-106.45 -51.66,-223.09 -51.66,-349.9 0,-115.85 11.74,-231.7 34.44,-348.33 22.7,-115.85 57.14,-227 101.76,-331.89 45.4,-105.68 100.98,-203.52 167.51,-293.54 66.54,-90.02 143.25,-168.3 230.92,-234.83 86.89,-66.54 184.74,-118.98 291.97,-157.34 108.03,-38.35 224.66,-57.14 349.9,-57.14 90.02,0 176.13,10.96 258.32,32.88 81.41,22.7 153.42,56.35 216.04,103.32 63.41,46.18 112.72,104.89 149.51,176.12 36.79,71.24 54.79,154.21 54.79,250.49zm-1428.55 418.78c168.29,0 318.59,-8.61 451.66,-25.05 133.07,-17.22 245.79,-42.27 337.37,-76.71 91.59,-34.44 162.03,-78.27 210.57,-133.07 49.31,-54.01 73.58,-119.76 73.58,-197.26 0,-32.87 -7.05,-63.4 -20.35,-93.93 -14.09,-29.74 -34.45,-56.36 -61.84,-79.06 -28.18,-22.7 -61.84,-41.49 -102.55,-55.58 -40.7,-13.3 -86.88,-20.35 -138.55,-20.35 -86.88,0 -169.86,15.66 -248.92,47.75 -78.27,32.1 -150.29,78.28 -215.26,137.77 -64.97,59.49 -122.11,131.5 -171.43,216.04 -48.53,83.76 -86.88,176.91 -114.28,279.45z"/>
  <path id="3" class="fil1" d="M26742.67 109461.7c0,46.97 9.4,88.45 28.18,122.11 19.57,34.44 45.4,64.19 77.5,90.02 32.09,25.05 68.88,46.97 111.93,64.97 43.06,18.79 87.67,36.01 135.42,53.23 65.76,22.7 132.29,46.97 199.61,74.36 67.32,26.62 128.37,61.06 183.17,102.55 55.57,42.26 100.19,95.49 135.42,159.68 35.22,64.19 53.22,146.38 53.22,247.36 0,120.54 -22.7,227 -68.1,318.58 -45.4,91.59 -108.02,168.3 -187.86,230.14 -80.63,61.84 -176.12,108.8 -286.5,140.11 -111.15,31.31 -232.48,46.97 -363.98,46.97 -117.42,0 -236.4,-12.52 -356.16,-37.57 -120.55,-25.05 -214.48,-57.93 -283.37,-98.63l66.54 -295.89c80.62,34.44 169.08,65.75 264.58,91.58 95.49,26.62 198.82,39.93 308.41,39.93 119.76,0 215.26,-14.09 288.06,-42.27 72.79,-28.97 129.15,-63.41 169.86,-104.11 40.7,-40.71 67.32,-82.98 79.84,-127.59 13.31,-44.62 19.57,-82.98 19.57,-115.07 0,-59.49 -13.31,-109.59 -41.49,-149.51 -27.39,-39.14 -63.4,-72.8 -107.24,-100.19 -44.62,-28.18 -94.71,-51.67 -151.85,-72.8 -56.36,-20.35 -114.29,-41.49 -173.78,-62.62 -57.14,-21.92 -112.72,-45.4 -167.51,-72.02 -54.8,-27.4 -103.33,-60.27 -145.6,-98.63 -42.27,-39.14 -75.93,-87.67 -102.54,-144.81 -25.83,-57.14 -38.36,-126.81 -38.36,-209.78 0,-117.42 21.14,-219.18 64.19,-306.07 42.27,-86.1 100.2,-158.12 172.99,-215.26 72.8,-57.14 156.56,-100.19 251.27,-128.37 94.72,-28.18 194.91,-42.27 300.59,-42.27 62.62,0 124.46,3.91 185.51,12.52 61.06,7.83 119.77,18.79 176.13,32.88 57.14,13.31 110.37,28.96 159.68,46.18 49.32,17.22 93.93,36.01 131.51,55.58l-61.84 289.62c-91.59,-38.35 -185.52,-71.23 -282.58,-97.06 -97.07,-25.83 -194.13,-39.14 -290.41,-39.14 -73.58,0 -138.55,8.61 -194.91,26.62 -56.36,17.22 -104.11,41.48 -142.46,71.23 -38.36,29.74 -67.32,65.75 -86.89,107.24 -19.57,41.49 -29.75,86.89 -29.75,136.2z"/>
  <path id="4" class="fil1" d="M28049.9 111055.42l451.65 -2179.23 355.38 0 -451.66 2179.23 -355.37 0zm547.93 -2686.47l80.63 -394.51 373.38 0 -79.84 394.51 -374.17 0z"/>
  <path id="5" class="fil1" d="M30696.45 109365.42c-20.36,-27.4 -43.84,-55.58 -72.8,-84.54 -28.18,-28.96 -60.28,-54.79 -97.07,-78.28 -36.79,-22.7 -78.27,-41.48 -125.24,-55.57 -46.18,-14.88 -97.84,-21.92 -154.2,-21.92 -87.67,0 -168.3,19.57 -242.66,58.71 -73.58,39.14 -139.34,90.02 -195.7,154.99 -56.35,64.18 -105.67,137.76 -147.94,220.74 -42.27,83.75 -76.71,169.86 -104.11,258.31 -28.18,88.45 -47.75,176.91 -61.05,265.36 -13.31,87.67 -19.57,169.08 -19.57,244.22 0,96.28 10.17,175.34 29.74,237.97 20.35,63.4 46.19,112.71 78.28,147.94 32.09,36.01 68.88,61.84 109.59,75.93 41.48,14.87 83.75,21.92 126.81,21.92 74.36,0 151.07,-19.57 229.35,-58.71 77.49,-39.14 151.07,-95.5 219.96,-169.86 68.88,-74.37 129.94,-165.17 184.73,-273.19 54.01,-107.24 94.71,-230.13 122.11,-367.9l119.77 -576.12zm-968.29 1746.36c-96.28,0 -181.6,-17.22 -256.75,-51.66 -74.36,-34.45 -138.55,-83.76 -190.21,-147.95 -51.67,-64.18 -91.59,-140.9 -118.98,-230.91 -27.4,-90.81 -41.49,-190.22 -41.49,-300.59 0,-128.37 10.96,-255.96 33.66,-383.56 21.92,-127.59 54.01,-249.7 97.06,-364.77 43.05,-115.06 95.5,-223.09 158.12,-321.71 62.62,-99.42 134.64,-185.52 216.05,-258.32 80.62,-72.01 172.21,-129.16 273.97,-170.64 101.76,-41.49 206.65,-61.84 315.45,-61.84 125.25,0 231.7,25.05 320.94,74.36 88.45,50.1 157.33,117.42 205.87,202.74l9.39 0 284.15 -1362.02 355.37 0 -587.07 2816.41c-3.92,25.04 -7.83,48.53 -10.96,72.79 -3.13,23.49 -4.7,43.06 -4.7,57.93 0,36.79 10.18,63.4 29.75,80.62 19.56,16.44 56.35,25.05 110.37,25.05 18,0 41.48,-0.78 69.66,-3.13 28.18,-2.35 55.58,-6.26 81.41,-10.96l-61.84 294.32c-22.7,5.48 -54.01,10.96 -93.93,14.88 -39.92,3.91 -79.84,5.48 -119.76,5.48 -126.81,0 -218.4,-29.75 -274.76,-89.24 -56.36,-59.49 -83.75,-160.47 -80.62,-302.15l-8.61 0c-52.45,76.71 -108.81,140.9 -169.08,193.35 -60.27,53.22 -121.33,95.49 -183.17,128.37 -61.84,32.88 -123.68,57.14 -184.73,71.23 -61.06,14.87 -118.98,21.92 -174.56,21.92z"/>
  <path id="6" class="fil1" d="M33383.69 109382.64c0,136.2 -33.65,249.7 -100.97,341.29 -67.32,91.58 -164.38,165.95 -291.98,222.3 -127.59,57.15 -284.14,98.63 -468.88,125.25 -185.51,26.61 -396.08,43.05 -633.26,49.31 -1.56,17.22 -2.34,33.66 -3.13,50.88 -0.78,16.44 -1.56,35.23 -1.56,54.8 0,199.6 50.09,345.2 149.51,437.56 99.41,91.59 248.13,137.77 446.96,137.77 51.66,0 105.67,-3.13 161.25,-10.17 56.36,-6.27 111.93,-16.44 166.73,-28.97 54.79,-12.52 108.02,-27.39 158.9,-43.83 51.66,-15.66 97.85,-33.66 139.33,-53.23l-64.18 321.72c-78.28,34.44 -170.65,64.19 -276.32,88.45 -106.46,24.27 -221.52,36.01 -345.2,36.01 -156.56,0 -290.41,-21.14 -402.35,-64.19 -112.72,-43.05 -205.08,-102.54 -277.88,-180.03 -72.8,-76.72 -126.03,-169.08 -160.47,-274.76 -34.44,-106.45 -51.66,-223.09 -51.66,-349.9 0,-115.85 11.74,-231.7 34.44,-348.33 22.7,-115.85 57.14,-227 101.76,-331.89 45.4,-105.68 100.98,-203.52 167.51,-293.54 66.54,-90.02 143.25,-168.3 230.92,-234.83 86.89,-66.54 184.74,-118.98 291.97,-157.34 108.03,-38.35 224.66,-57.14 349.9,-57.14 90.02,0 176.13,10.96 258.32,32.88 81.41,22.7 153.42,56.35 216.04,103.32 63.41,46.18 112.72,104.89 149.51,176.12 36.79,71.24 54.79,154.21 54.79,250.49zm-1428.55 418.78c168.29,0 318.59,-8.61 451.66,-25.05 133.07,-17.22 245.79,-42.27 337.37,-76.71 91.59,-34.44 162.03,-78.27 210.57,-133.07 49.31,-54.01 73.58,-119.76 73.58,-197.26 0,-32.87 -7.05,-63.4 -20.35,-93.93 -14.09,-29.74 -34.45,-56.36 -61.84,-79.06 -28.18,-22.7 -61.84,-41.49 -102.55,-55.58 -40.7,-13.3 -86.88,-20.35 -138.55,-20.35 -86.88,0 -169.86,15.66 -248.92,47.75 -78.27,32.1 -150.29,78.28 -215.26,137.77 -64.97,59.49 -122.11,131.5 -171.43,216.04 -48.53,83.76 -86.88,176.91 -114.28,279.45z"/>
  <path id="7" class="fil1" d="M33956.68 111055.42l-355.37 0 454 -2179.23 291.19 0 0 296.67 9.4 0c93.15,-110.37 202.73,-196.48 328.76,-259.1 126.81,-62.62 268.49,-93.93 425.83,-93.93 86.88,0 166.73,11.74 239.52,35.22 72.8,24.27 134.64,57.93 185.52,102.55 51.66,43.83 91.58,99.41 120.55,165.16 28.96,65.75 43.83,140.12 43.83,224.66 0,59.49 -5.48,122.89 -14.87,190.21 -10.18,67.32 -22.7,136.2 -38.36,205.87l-272.4 1311.92 -355.38 0 279.45 -1354.19c24.27,-111.94 36.79,-203.52 36.79,-275.54 0,-54.79 -7.83,-101.76 -24.26,-140.9 -15.66,-39.13 -38.36,-70.45 -67.32,-94.71 -28.97,-23.48 -64.19,-40.7 -104.11,-52.45 -40.71,-11.74 -84.54,-17.22 -132.29,-17.22 -102.54,0 -198.04,18.79 -286.49,56.36 -88.46,37.57 -167.52,89.24 -236.4,154.99 -68.88,65.75 -126.81,143.25 -174.56,232.48 -46.96,89.24 -81.41,185.52 -102.54,289.63l-250.49 1201.55z"/>
  <path id="8" class="fil1" d="M37195 111067.94c-36.79,10.96 -90.02,21.14 -158.9,29.75 -68.88,9.39 -136.98,14.09 -205.87,14.09 -192.56,0 -333.46,-38.36 -421.91,-115.85 -89.24,-76.71 -133.07,-183.17 -133.07,-317.81 0,-50.09 7.04,-113.5 22.7,-190.21l270.84 -1306.44 -421.92 0 64.19 -305.28 421.91 0 123.68 -596.47 357.73 0 -123.68 596.47 575.34 0 -61.84 305.28 -577.69 0 -254.4 1219.55c-7.83,39.14 -14.09,73.58 -18.78,102.55 -4.7,28.96 -7.05,57.92 -7.05,85.32 0,79.06 21.14,134.64 63.4,165.95 42.27,31.31 113.51,46.96 214.48,46.96 45.4,0 100.2,-3.91 163.6,-12.52 63.41,-8.61 119.77,-18.79 169.08,-31.31l-61.84 309.97z"/>
  <path id="9" class="fil1" d="M37634.92 111055.42l451.65 -2179.23 355.38 0 -451.66 2179.23 -355.37 0zm547.93 -2686.47l80.63 -394.51 373.38 0 -79.84 394.51 -374.17 0z"/>
  <path id="10" class="fil1" d="M40257.98 109365.42c-19.57,-28.18 -43.05,-56.36 -69.66,-85.32 -26.62,-29.75 -57.93,-56.36 -93.15,-79.84 -34.45,-24.27 -74.37,-43.06 -117.42,-57.93 -43.83,-14.87 -93.15,-21.92 -147.94,-21.92 -90.8,0 -172.21,19.57 -245.79,59.49 -73.58,39.92 -138.55,92.37 -194.91,157.34 -56.36,65.75 -105.68,140.12 -146.38,223.87 -41.49,84.54 -75.93,171.43 -102.54,261.45 -26.62,89.23 -46.19,177.69 -59.49,265.36 -13.31,86.88 -19.57,166.73 -19.57,238.74 0,96.28 8.61,176.12 26.61,238.75 17.22,62.62 41.49,111.93 72.02,147.94 30.52,36.01 65.75,61.84 105.67,75.93 39.92,14.87 80.63,21.92 123.68,21.92 75.14,0 151.07,-19.57 228.57,-58.71 76.71,-39.14 148.72,-95.5 216.04,-169.86 67.32,-74.37 128.38,-165.17 181.6,-273.19 53.23,-107.24 94.72,-230.13 123.68,-367.9l118.98 -576.12zm-256.75 1331.49c-51.66,76.71 -107.24,140.9 -167.51,193.35 -59.49,53.22 -119.76,95.49 -180.82,128.37 -61.05,32.88 -122.11,57.14 -182.38,71.23 -60.28,14.87 -118.2,21.92 -173,21.92 -94.71,0 -179.25,-17.22 -252.05,-51.66 -73.58,-34.45 -135.42,-83.76 -186.3,-147.95 -50.09,-64.18 -88.45,-140.9 -114.28,-230.91 -25.83,-90.81 -39.14,-190.22 -39.14,-300.59 0,-123.68 10.96,-248.14 32.09,-372.6 21.14,-124.46 53.23,-245 95.5,-360.85 41.49,-115.85 93.93,-223.88 156.56,-324.07 62.62,-100.19 134.63,-187.86 216.04,-263.01 80.63,-74.36 170.64,-133.07 270.06,-176.12 99.41,-43.06 208.21,-64.19 325.63,-64.19 116.63,0 219.17,24.26 307.63,72.01 88.45,48.54 156.55,115.85 204.3,202.74l9.39 0 104.89 -218.39 288.85 0 -350.69 1675.13c-10.95,58.7 -15.65,101.76 -15.65,130.72 0,36.79 10.18,63.4 30.53,80.62 21.13,16.44 57.14,25.05 108.8,25.05 43.05,0 93.15,-4.69 151.86,-14.09l-61.84 294.32c-64.19,13.31 -135.42,20.36 -213.7,20.36 -126.8,0 -218.39,-29.75 -274.75,-89.24 -57.14,-59.49 -83.75,-160.47 -80.62,-302.15l-9.4 0z"/>
  <path id="11" class="fil1" d="M41698.28 111067.94c-24.26,5.48 -56.36,10.96 -94.71,14.88 -39.14,3.91 -79.06,5.48 -120.55,5.48 -128.37,0 -225.44,-25.05 -290.41,-75.93 -64.97,-50.1 -97.06,-129.94 -97.06,-237.96 0,-46.19 6.26,-99.42 18,-160.47l603.52 -2879.03 355.38 0 -582.38 2784.31c-14.09,68.89 -21.14,118.2 -21.14,148.73 0,38.35 10.96,66.53 32.1,83.76 21.91,18 57.14,26.61 108.02,26.61 50.1,0 100.98,-4.7 151.07,-14.09l-61.84 303.71z"/>
  <path id="12" class="fil1" d="M44784.75 108260.93c-139.34,0 -269.28,21.14 -389.82,64.19 -120.55,43.05 -230.92,101.76 -329.55,177.69 -98.63,75.93 -186.3,165.16 -263.01,268.49 -77.49,102.54 -142.46,215.26 -194.13,336.59 -51.66,121.33 -91.58,249.7 -118.98,384.34 -28.18,134.63 -41.49,269.27 -41.49,405.47 0,182.39 26.62,330.33 79.85,444.62 54.01,115.06 123.68,204.3 209,268.49 85.32,64.18 182.38,108.02 291.19,132.28 108.8,23.49 217.61,35.23 327.98,35.23 123.68,0 243.44,-10.96 357.72,-33.66 115.07,-22.7 218.4,-49.31 312.33,-79.06l-71.23 341.29c-96.28,34.44 -202.74,61.05 -317.81,78.28 -115.06,18 -230.13,26.61 -345.2,26.61 -172.99,0 -334.24,-22.7 -485.32,-68.88 -150.29,-46.19 -281.01,-116.64 -392.16,-213.7 -110.37,-96.28 -198.05,-219.18 -261.45,-368.69 -63.4,-150.29 -94.71,-328.76 -94.71,-536.98 0,-153.42 15.65,-308.41 46.96,-467.31 31.31,-158.12 79.06,-310.76 143.25,-458.7 64.19,-147.16 144.81,-286.5 241.09,-416.44 96.28,-129.94 209,-243.44 338.94,-340.5 129.94,-97.06 277.1,-173.78 441.48,-229.35 164.39,-55.58 345.2,-83.76 542.46,-83.76 129.94,0 250.49,10.96 362.43,32.88 111.93,21.91 208.21,48.53 288.84,78.27l-68.89 330.33c-85.32,-29.74 -176.12,-54.79 -272.4,-75.93 -96.28,-21.13 -209,-32.09 -337.37,-32.09z"/>
  <path id="13" class="fil1" d="M46692.35 109120.41c-88.45,0 -169.07,17.22 -242.65,50.88 -73.58,33.66 -140.12,79.06 -199.61,136.2 -59.49,57.93 -111.94,124.47 -157.34,201.18 -44.61,76.71 -82.97,158.12 -113.5,243.44 -30.53,86.1 -53.23,173.77 -68.88,264.57 -14.87,90.02 -22.7,177.69 -22.7,261.45 0,79.84 8.61,152.64 26.61,218.39 17.22,65.75 44.62,122.11 81.41,169.08 36.79,46.18 82.97,82.19 140.12,108.02 56.35,25.05 122.89,37.58 198.82,37.58 87.67,0 168.29,-17.23 241.87,-50.88 74.37,-33.66 141.69,-79.06 201.18,-136.21 59.49,-57.92 111.93,-124.46 157.33,-199.6 44.62,-75.93 82.98,-157.34 113.51,-242.66 30.52,-86.11 53.22,-173.78 68.1,-264.58 15.65,-90.02 23.48,-178.47 23.48,-263.79 0,-81.41 -8.61,-154.21 -26.61,-219.18 -17.23,-65.75 -44.62,-121.33 -81.41,-168.29 -36.79,-46.19 -82.98,-82.19 -140.12,-108.02 -56.36,-25.05 -122.89,-37.58 -199.61,-37.58zm803.13 556.55c0,94.72 -10.18,196.48 -29.75,304.5 -20.35,108.8 -50.88,216.04 -91.58,322.5 -41.49,106.46 -93.93,208.22 -157.34,306.06 -63.4,97.85 -139.33,183.17 -227,257.54 -87.67,74.36 -187.87,133.85 -300.59,177.68 -111.93,44.62 -238.74,66.54 -379.64,66.54 -115.85,0 -222.31,-18 -318.59,-54.01 -96.28,-36.01 -178.47,-89.24 -245,-158.9 -67.32,-70.45 -119.77,-156.56 -157.34,-258.32 -37.57,-101.76 -56.36,-217.61 -56.36,-349.11 0,-96.28 9.39,-199.61 28.96,-309.98 18.79,-109.59 49.32,-219.18 90.02,-328.76 41.49,-108.81 93.93,-213.7 157.34,-313.89 63.4,-100.2 138.55,-188.65 226.22,-265.36 86.89,-77.5 187.08,-139.34 299.8,-184.74 113.5,-46.18 239.53,-68.88 378.86,-68.88 117.42,0 223.87,18 320.15,54.01 95.5,36.01 177.69,89.24 245.79,160.47 68.89,70.45 122.11,159.68 159.69,266.92 37.57,107.24 56.36,232.49 56.36,375.73z"/>
  <path id="14" class="fil1" d="M49772.55 109266.79c54.8,-79.06 114.29,-147.16 178.47,-204.3 64.19,-56.36 130.73,-102.55 198.83,-138.55 68.1,-36.01 136.2,-61.84 205.08,-79.06 68.89,-16.44 136.2,-25.05 201.96,-25.05 79.06,0 153.42,11.74 220.74,35.22 68.1,24.27 126.81,57.93 176.12,102.55 48.53,43.83 86.89,99.41 115.85,165.16 28.18,65.75 42.27,140.12 42.27,224.66 0,59.49 -5.48,122.89 -14.87,190.21 -10.18,67.32 -22.7,136.2 -38.36,205.87l-272.4 1311.92 -355.38 0 286.5 -1386.29c11.74,-59.49 20.35,-109.58 24.26,-149.5 3.13,-39.93 5.48,-71.24 5.48,-93.94 0,-104.11 -26.61,-181.6 -80.62,-231.7 -53.23,-50.88 -123.68,-75.14 -210.57,-73.58 -86.1,0 -169.08,18.79 -250.49,56.36 -80.62,37.57 -154.98,89.24 -222.3,154.99 -67.32,65.75 -124.46,143.25 -173,231.7 -47.74,88.45 -82.97,184.73 -104.1,288.84l-249.71 1203.12 -356.16 0 287.28 -1384.72c11.74,-59.49 19.57,-109.59 23.48,-149.51 3.92,-39.14 6.26,-70.45 6.26,-93.93 -1.56,-110.37 -29.74,-189.43 -83.75,-236.4 -54.8,-46.96 -123.68,-70.45 -207.44,-70.45 -86.1,0 -169.07,18.79 -250.48,56.36 -80.63,37.57 -154.99,89.24 -220.74,154.99 -66.54,65.75 -124.46,143.25 -173.78,231.7 -48.53,88.45 -83.76,184.73 -104.89,288.84l-250.49 1203.12 -355.37 0 454 -2179.23 291.19 0 0 296.67 9.4 0c93.15,-112.72 201.17,-200.39 323.28,-261.45 122.11,-61.05 251.27,-91.58 387.47,-91.58 72.02,0 137.77,9.39 198.83,28.96 60.27,18.79 113.5,47.75 160.46,85.32 46.19,38.36 84.54,85.33 113.5,140.12 28.97,54.79 46.97,118.98 54.8,192.56l9.39 0z"/>
  <path id="15" class="fil1" d="M53446.09 109266.79c54.8,-79.06 114.29,-147.16 178.47,-204.3 64.19,-56.36 130.73,-102.55 198.83,-138.55 68.1,-36.01 136.2,-61.84 205.08,-79.06 68.89,-16.44 136.2,-25.05 201.96,-25.05 79.06,0 153.42,11.74 220.74,35.22 68.1,24.27 126.81,57.93 176.12,102.55 48.53,43.83 86.89,99.41 115.85,165.16 28.18,65.75 42.27,140.12 42.27,224.66 0,59.49 -5.48,122.89 -14.87,190.21 -10.18,67.32 -22.7,136.2 -38.36,205.87l-272.4 1311.92 -355.38 0 286.5 -1386.29c11.74,-59.49 20.35,-109.58 24.26,-149.5 3.13,-39.93 5.48,-71.24 5.48,-93.94 0,-104.11 -26.61,-181.6 -80.62,-231.7 -53.23,-50.88 -123.68,-75.14 -210.57,-73.58 -86.1,0 -169.08,18.79 -250.49,56.36 -80.62,37.57 -154.98,89.24 -222.3,154.99 -67.32,65.75 -124.46,143.25 -173,231.7 -47.74,88.45 -82.97,184.73 -104.1,288.84l-249.71 1203.12 -356.16 0 287.28 -1384.72c11.74,-59.49 19.57,-109.59 23.48,-149.51 3.92,-39.14 6.26,-70.45 6.26,-93.93 -1.56,-110.37 -29.74,-189.43 -83.75,-236.4 -54.8,-46.96 -123.68,-70.45 -207.44,-70.45 -86.1,0 -169.07,18.79 -250.48,56.36 -80.63,37.57 -154.99,89.24 -220.74,154.99 -66.54,65.75 -124.46,143.25 -173.78,231.7 -48.53,88.45 -83.76,184.73 -104.89,288.84l-250.49 1203.12 -355.37 0 454 -2179.23 291.19 0 0 296.67 9.4 0c93.15,-112.72 201.17,-200.39 323.28,-261.45 122.11,-61.05 251.27,-91.58 387.47,-91.58 72.02,0 137.77,9.39 198.83,28.96 60.27,18.79 113.5,47.75 160.46,85.32 46.19,38.36 84.54,85.33 113.5,140.12 28.97,54.79 46.97,118.98 54.8,192.56l9.39 0z"/>
  <path id="16" class="fil1" d="M56004.97 111111.78c-131.51,0 -245.79,-16.44 -342.07,-49.32 -96.28,-32.87 -175.34,-78.27 -237.18,-136.2 -61.84,-57.92 -108.02,-126.81 -137.77,-206.65 -29.75,-79.06 -44.62,-165.95 -44.62,-259.1 0,-33.65 2.35,-68.1 6.26,-104.1 3.92,-36.01 10.18,-75.93 18.79,-120.55l282.58 -1359.67 355.38 0 -277.1 1338.54c-7.83,37.57 -14.09,74.36 -18.79,108.8 -4.7,34.44 -7.04,67.32 -7.04,99.41 0,58.71 7.82,111.94 23.48,159.69 14.87,48.53 39.14,89.23 72.01,122.89 32.88,33.66 75.93,59.49 128.38,78.28 52.44,18 116.63,27.4 191.78,27.4 94.71,0 176.9,-13.31 245.79,-39.93 69.66,-27.39 129.15,-65.75 177.69,-117.41 49.31,-50.88 89.23,-111.94 119.76,-182.39 30.53,-70.45 54.79,-149.51 73.58,-236.39l281.8 -1358.89 355.37 0 -295.88 1416.81c-18.01,89.24 -43.05,174.56 -74.37,256.75 -31.31,82.97 -71.23,158.12 -120.54,227 -73.58,100.98 -173.78,182.39 -300.59,243.45 -126.8,61.05 -285.71,91.58 -476.7,91.58z"/>
  <path id="17" class="fil1" d="M57811.6 111055.42l-355.37 0 454 -2179.23 291.19 0 0 296.67 9.4 0c93.15,-110.37 202.73,-196.48 328.76,-259.1 126.81,-62.62 268.49,-93.93 425.83,-93.93 86.88,0 166.73,11.74 239.52,35.22 72.8,24.27 134.64,57.93 185.52,102.55 51.66,43.83 91.58,99.41 120.55,165.16 28.96,65.75 43.83,140.12 43.83,224.66 0,59.49 -5.48,122.89 -14.87,190.21 -10.18,67.32 -22.7,136.2 -38.36,205.87l-272.4 1311.92 -355.38 0 279.45 -1354.19c24.27,-111.94 36.79,-203.52 36.79,-275.54 0,-54.79 -7.83,-101.76 -24.26,-140.9 -15.66,-39.13 -38.36,-70.45 -67.32,-94.71 -28.97,-23.48 -64.19,-40.7 -104.11,-52.45 -40.71,-11.74 -84.54,-17.22 -132.29,-17.22 -102.54,0 -198.04,18.79 -286.49,56.36 -88.46,37.57 -167.52,89.24 -236.4,154.99 -68.88,65.75 -126.81,143.25 -174.56,232.48 -46.96,89.24 -81.41,185.52 -102.54,289.63l-250.49 1201.55z"/>
  <path id="18" class="fil1" d="M59886.73 111055.42l451.65 -2179.23 355.38 0 -451.66 2179.23 -355.37 0zm547.93 -2686.47l80.63 -394.51 373.38 0 -79.84 394.51 -374.17 0z"/>
  <path id="19" class="fil1" d="M62659.3 109242.52c-73.58,-32.87 -154.2,-60.27 -241.87,-81.4 -88.46,-21.14 -169.87,-31.31 -246.58,-31.31 -102.54,0 -196.47,18 -281.01,54.79 -84.54,36.79 -158.9,85.32 -222.31,145.59 -63.4,60.28 -118.2,129.16 -162.81,207.44 -45.4,77.49 -82.19,158.12 -110.37,241.09 -28.18,83.76 -48.54,165.95 -61.84,246.57 -13.31,80.63 -19.57,154.99 -19.57,222.31 0,106.46 13.3,196.48 39.14,267.71 25.83,72.01 62.62,129.16 108.8,170.64 46.97,42.27 102.54,72.02 167.51,89.24 64.97,18 135.42,26.61 212.13,26.61 108.81,0 213.7,-14.09 316.24,-42.27 102.55,-28.18 188.65,-61.05 259.1,-98.63l-64.19 324.85c-30.52,17.22 -67.32,32.88 -109.58,48.54 -43.06,14.87 -90.02,28.17 -140.12,39.92 -50.1,10.96 -102.54,20.35 -157.34,27.39 -54.01,7.05 -108.8,10.18 -163.6,10.18 -110.37,0 -215.26,-15.66 -314.67,-46.18 -98.63,-30.53 -186.3,-79.85 -262.23,-147.16 -75.93,-68.11 -135.42,-155.78 -180.03,-261.45 -44.62,-106.46 -66.54,-234.83 -66.54,-386.69 0,-101.76 10.18,-208.22 29.74,-318.59 20.36,-109.58 50.89,-219.17 93.15,-327.19 42.27,-108.81 94.72,-211.35 158.91,-308.41 64.18,-97.07 141.68,-182.39 230.91,-255.97 89.24,-72.8 191.78,-131.51 308.42,-175.34 115.85,-43.05 244.22,-64.97 385.12,-64.97 54.79,0 109.59,3.91 162.81,11.74 53.23,7.05 104.11,16.44 152.64,28.18 47.75,11.74 93.15,24.27 135.42,39.14 41.49,14.09 77.5,28.18 106.46,42.27l-61.84 301.36z"/>
  <path id="20" class="fil1" d="M64456.54 109365.42c-19.57,-28.18 -43.05,-56.36 -69.66,-85.32 -26.62,-29.75 -57.93,-56.36 -93.15,-79.84 -34.45,-24.27 -74.37,-43.06 -117.42,-57.93 -43.83,-14.87 -93.15,-21.92 -147.94,-21.92 -90.8,0 -172.21,19.57 -245.79,59.49 -73.58,39.92 -138.55,92.37 -194.91,157.34 -56.36,65.75 -105.68,140.12 -146.38,223.87 -41.49,84.54 -75.93,171.43 -102.54,261.45 -26.62,89.23 -46.19,177.69 -59.49,265.36 -13.31,86.88 -19.57,166.73 -19.57,238.74 0,96.28 8.61,176.12 26.61,238.75 17.22,62.62 41.49,111.93 72.02,147.94 30.52,36.01 65.75,61.84 105.67,75.93 39.92,14.87 80.63,21.92 123.68,21.92 75.14,0 151.07,-19.57 228.57,-58.71 76.71,-39.14 148.72,-95.5 216.04,-169.86 67.32,-74.37 128.38,-165.17 181.6,-273.19 53.23,-107.24 94.72,-230.13 123.68,-367.9l118.98 -576.12zm-256.75 1331.49c-51.66,76.71 -107.24,140.9 -167.51,193.35 -59.49,53.22 -119.76,95.49 -180.82,128.37 -61.05,32.88 -122.11,57.14 -182.38,71.23 -60.28,14.87 -118.2,21.92 -173,21.92 -94.71,0 -179.25,-17.22 -252.05,-51.66 -73.58,-34.45 -135.42,-83.76 -186.3,-147.95 -50.09,-64.18 -88.45,-140.9 -114.28,-230.91 -25.83,-90.81 -39.14,-190.22 -39.14,-300.59 0,-123.68 10.96,-248.14 32.09,-372.6 21.14,-124.46 53.23,-245 95.5,-360.85 41.49,-115.85 93.93,-223.88 156.56,-324.07 62.62,-100.19 134.63,-187.86 216.04,-263.01 80.63,-74.36 170.64,-133.07 270.06,-176.12 99.41,-43.06 208.21,-64.19 325.63,-64.19 116.63,0 219.17,24.26 307.63,72.01 88.45,48.54 156.55,115.85 204.3,202.74l9.39 0 104.89 -218.39 288.85 0 -350.69 1675.13c-10.95,58.7 -15.65,101.76 -15.65,130.72 0,36.79 10.18,63.4 30.53,80.62 21.13,16.44 57.14,25.05 108.8,25.05 43.05,0 93.15,-4.69 151.86,-14.09l-61.84 294.32c-64.19,13.31 -135.42,20.36 -213.7,20.36 -126.8,0 -218.39,-29.75 -274.75,-89.24 -57.14,-59.49 -83.75,-160.47 -80.62,-302.15l-9.4 0z"/>
  <path id="21" class="fil1" d="M66376.68 111067.94c-36.79,10.96 -90.02,21.14 -158.9,29.75 -68.88,9.39 -136.98,14.09 -205.87,14.09 -192.56,0 -333.46,-38.36 -421.91,-115.85 -89.24,-76.71 -133.07,-183.17 -133.07,-317.81 0,-50.09 7.04,-113.5 22.7,-190.21l270.84 -1306.44 -421.92 0 64.19 -305.28 421.91 0 123.68 -596.47 357.73 0 -123.68 596.47 575.34 0 -61.84 305.28 -577.69 0 -254.4 1219.55c-7.83,39.14 -14.09,73.58 -18.78,102.55 -4.7,28.96 -7.05,57.92 -7.05,85.32 0,79.06 21.14,134.64 63.4,165.95 42.27,31.31 113.51,46.96 214.48,46.96 45.4,0 100.2,-3.91 163.6,-12.52 63.41,-8.61 119.77,-18.79 169.08,-31.31l-61.84 309.97z"/>
  <path id="22" class="fil1" d="M66816.6 111055.42l451.65 -2179.23 355.38 0 -451.66 2179.23 -355.37 0zm547.93 -2686.47l80.63 -394.51 373.38 0 -79.84 394.51 -374.17 0z"/>
  <path id="23" class="fil1" d="M69047.49 109120.41c-88.45,0 -169.07,17.22 -242.65,50.88 -73.58,33.66 -140.12,79.06 -199.61,136.2 -59.49,57.93 -111.94,124.47 -157.34,201.18 -44.61,76.71 -82.97,158.12 -113.5,243.44 -30.53,86.1 -53.23,173.77 -68.88,264.57 -14.87,90.02 -22.7,177.69 -22.7,261.45 0,79.84 8.61,152.64 26.61,218.39 17.22,65.75 44.62,122.11 81.41,169.08 36.79,46.18 82.97,82.19 140.12,108.02 56.35,25.05 122.89,37.58 198.82,37.58 87.67,0 168.29,-17.23 241.87,-50.88 74.37,-33.66 141.69,-79.06 201.18,-136.21 59.49,-57.92 111.93,-124.46 157.33,-199.6 44.62,-75.93 82.98,-157.34 113.51,-242.66 30.52,-86.11 53.22,-173.78 68.1,-264.58 15.65,-90.02 23.48,-178.47 23.48,-263.79 0,-81.41 -8.61,-154.21 -26.61,-219.18 -17.23,-65.75 -44.62,-121.33 -81.41,-168.29 -36.79,-46.19 -82.98,-82.19 -140.12,-108.02 -56.36,-25.05 -122.89,-37.58 -199.61,-37.58zm803.13 556.55c0,94.72 -10.18,196.48 -29.75,304.5 -20.35,108.8 -50.88,216.04 -91.58,322.5 -41.49,106.46 -93.93,208.22 -157.34,306.06 -63.4,97.85 -139.33,183.17 -227,257.54 -87.67,74.36 -187.87,133.85 -300.59,177.68 -111.93,44.62 -238.74,66.54 -379.64,66.54 -115.85,0 -222.31,-18 -318.59,-54.01 -96.28,-36.01 -178.47,-89.24 -245,-158.9 -67.32,-70.45 -119.77,-156.56 -157.34,-258.32 -37.57,-101.76 -56.36,-217.61 -56.36,-349.11 0,-96.28 9.39,-199.61 28.96,-309.98 18.79,-109.59 49.32,-219.18 90.02,-328.76 41.49,-108.81 93.93,-213.7 157.34,-313.89 63.4,-100.2 138.55,-188.65 226.22,-265.36 86.89,-77.5 187.08,-139.34 299.8,-184.74 113.5,-46.18 239.53,-68.88 378.86,-68.88 117.42,0 223.87,18 320.15,54.01 95.5,36.01 177.69,89.24 245.79,160.47 68.89,70.45 122.11,159.68 159.69,266.92 37.57,107.24 56.36,232.49 56.36,375.73z"/>
  <path id="24" class="fil1" d="M70480.74 111055.42l-355.37 0 454 -2179.23 291.19 0 0 296.67 9.4 0c93.15,-110.37 202.73,-196.48 328.76,-259.1 126.81,-62.62 268.49,-93.93 425.83,-93.93 86.88,0 166.73,11.74 239.52,35.22 72.8,24.27 134.64,57.93 185.52,102.55 51.66,43.83 91.58,99.41 120.55,165.16 28.96,65.75 43.83,140.12 43.83,224.66 0,59.49 -5.48,122.89 -14.87,190.21 -10.18,67.32 -22.7,136.2 -38.36,205.87l-272.4 1311.92 -355.38 0 279.45 -1354.19c24.27,-111.94 36.79,-203.52 36.79,-275.54 0,-54.79 -7.83,-101.76 -24.26,-140.9 -15.66,-39.13 -38.36,-70.45 -67.32,-94.71 -28.97,-23.48 -64.19,-40.7 -104.11,-52.45 -40.71,-11.74 -84.54,-17.22 -132.29,-17.22 -102.54,0 -198.04,18.79 -286.49,56.36 -88.46,37.57 -167.52,89.24 -236.4,154.99 -68.88,65.75 -126.81,143.25 -174.56,232.48 -46.96,89.24 -81.41,185.52 -102.54,289.63l-250.49 1201.55z"/>
  <path id="25" class="fil1" d="M74649.78 111111.78c-174.56,0 -332.68,-24.27 -475.14,-72.02 -141.68,-48.53 -263.8,-119.76 -363.99,-214.47 -100.98,-95.5 -178.47,-212.92 -233.27,-353.82 -54.01,-140.11 -81.4,-303.71 -81.4,-488.44 0,-152.65 15.65,-309.98 46.18,-471.23 30.53,-161.25 75.93,-318.59 137.77,-470.45 61.05,-152.64 136.98,-295.88 229.35,-431.3 91.58,-135.42 198.82,-253.62 323.28,-354.6 123.68,-100.98 263.01,-180.82 417.22,-239.53 154.2,-58.7 324.07,-88.45 508.8,-88.45 174.56,0 332.68,24.27 475.14,72.02 141.68,48.53 263.01,119.76 363.21,214.47 100.19,94.72 177.68,212.92 231.7,353.82 54.01,140.11 81.4,303.71 81.4,488.45 0,152.64 -15.65,309.97 -46.18,471.22 -30.53,161.25 -75.93,318.59 -136.98,470.45 -61.84,152.64 -137.77,295.88 -229.36,431.3 -92.36,135.42 -199.6,253.62 -322.5,354.6 -122.89,100.98 -262.23,180.82 -416.43,239.53 -154.21,58.7 -324.07,88.45 -508.8,88.45zm2.35 -333.46c138.55,0 266.92,-25.05 382.77,-74.36 115.85,-50.1 221.53,-117.42 315.46,-201.96 93.93,-84.54 176.12,-183.17 247.35,-295.89 71.24,-111.93 130.73,-230.91 177.69,-356.16 47.75,-125.24 83.76,-253.61 108.02,-385.12 24.27,-131.5 36.79,-258.31 36.79,-381.21 0,-270.05 -64.18,-475.14 -191.77,-613.69 -127.6,-139.33 -318.59,-209 -574.56,-209 -138.55,0 -266.14,25.05 -382.77,74.36 -115.85,50.1 -221.53,117.42 -315.46,201.96 -93.93,84.54 -176.12,183.17 -247.35,295.89 -71.24,111.93 -130.73,230.91 -177.69,356.16 -47.75,125.24 -83.76,253.61 -108.02,385.12 -24.27,131.5 -36.79,258.31 -36.79,380.43 0,270.83 64.18,475.92 191.77,614.47 127.6,139.33 319.37,209 574.56,209z"/>
  <path id="26" class="fil1" d="M78768.71 109181.47l-446.96 2157.31c-33.66,165.17 -79.84,301.37 -137.77,409.39 -57.92,108.02 -124.46,193.35 -199.6,256.75 -75.15,63.4 -157.34,108.02 -248.14,133.85 -90.02,25.84 -183.95,39.14 -281.8,39.14 -68.88,0 -130.72,-4.69 -185.51,-14.09 -54.8,-8.61 -99.42,-19.57 -133.08,-32.09l57.15 -302.93c35.22,12.52 75.14,21.91 119.76,28.96 43.84,7.04 90.8,10.18 139.33,10.18 144.03,0 256.75,-53.23 338.16,-159.69 82.19,-105.67 145.6,-267.71 191.78,-484.53l428.96 -2042.25 -940.11 0 -452.44 2173.75c-32.09,154.21 -75.93,283.36 -132.29,388.25 -57.14,104.9 -125.24,189.44 -204.3,253.62 -79.84,64.19 -169.08,110.37 -269.27,138.55 -100.2,28.18 -209,42.27 -327.2,42.27 -70.45,0 -133.86,-5.48 -190.22,-16.44 -56.36,-10.17 -97.84,-20.35 -123.67,-29.74l57.14 -302.93c35.22,12.52 75.14,21.91 118.98,28.96 44.62,7.04 85.32,10.18 122.11,10.18 88.46,0 165.95,-10.96 231.7,-32.88 65.75,-22.7 122.9,-60.27 171.43,-112.72 49.31,-52.45 90.8,-122.11 126.02,-207.43 35.23,-85.33 65.76,-191.78 92.37,-318.59l421.91 -2014.85 -401.56 0 64.19 -305.28 401.56 0 82.19 -398.43c32.1,-154.21 77.5,-282.58 136.2,-385.91 59.5,-103.32 126.03,-184.73 201.18,-245 75.14,-60.28 157.33,-103.33 246.57,-129.16 89.23,-25.83 180.04,-39.14 271.62,-39.14 61.06,0 121.33,5.48 180.04,16.44 58.7,10.17 104.89,21.92 138.55,33.66l-54.8 296.67c-36.79,-10.96 -76.71,-19.57 -120.54,-26.62 -43.84,-7.04 -90.02,-10.17 -138.55,-10.17 -144.03,0 -255.97,43.83 -335.81,131.5 -80.63,87.67 -140.12,223.87 -178.47,408.61l-70.45 347.55 940.1 0 68.89 -318.59c25.83,-120.55 61.84,-225.44 107.24,-315.46 46.18,-90.01 98.63,-168.29 157.33,-234.04 58.71,-65.76 122.12,-118.98 189.43,-161.25 67.32,-42.27 136.21,-75.93 205.87,-100.98 70.45,-25.05 140.12,-42.27 208.22,-52.45 68.1,-10.17 131.51,-14.87 191,-14.87 73.58,0 158.12,7.05 253.61,21.92 95.5,14.09 198.83,39.92 310.76,76.71l-66.53 298.23c-73.58,-25.83 -154.21,-46.96 -241.88,-62.62 -87.67,-16.44 -166.73,-24.26 -237.18,-24.26 -91.58,0 -177.69,12.52 -256.75,36.79 -79.84,24.26 -151.07,62.62 -214.48,115.06 -63.4,53.23 -118.19,120.55 -164.38,203.52 -45.4,83.76 -80.62,183.17 -105.67,299.02l-47.75 233.27 1295.48 0 -451.65 2179.23 -355.38 0 387.47 -1873.95 -940.11 0z"/>
  <path id="27" class="fil1" d="M82093.92 109242.52c-73.58,-32.87 -154.2,-60.27 -241.87,-81.4 -88.46,-21.14 -169.87,-31.31 -246.58,-31.31 -102.54,0 -196.47,18 -281.01,54.79 -84.54,36.79 -158.9,85.32 -222.31,145.59 -63.4,60.28 -118.2,129.16 -162.81,207.44 -45.4,77.49 -82.19,158.12 -110.37,241.09 -28.18,83.76 -48.54,165.95 -61.84,246.57 -13.31,80.63 -19.57,154.99 -19.57,222.31 0,106.46 13.3,196.48 39.14,267.71 25.83,72.01 62.62,129.16 108.8,170.64 46.97,42.27 102.54,72.02 167.51,89.24 64.97,18 135.42,26.61 212.13,26.61 108.81,0 213.7,-14.09 316.24,-42.27 102.55,-28.18 188.65,-61.05 259.1,-98.63l-64.19 324.85c-30.52,17.22 -67.32,32.88 -109.58,48.54 -43.06,14.87 -90.02,28.17 -140.12,39.92 -50.1,10.96 -102.54,20.35 -157.34,27.39 -54.01,7.05 -108.8,10.18 -163.6,10.18 -110.37,0 -215.26,-15.66 -314.67,-46.18 -98.63,-30.53 -186.3,-79.85 -262.23,-147.16 -75.93,-68.11 -135.42,-155.78 -180.03,-261.45 -44.62,-106.46 -66.54,-234.83 -66.54,-386.69 0,-101.76 10.18,-208.22 29.74,-318.59 20.36,-109.58 50.89,-219.17 93.15,-327.19 42.27,-108.81 94.72,-211.35 158.91,-308.41 64.18,-97.07 141.68,-182.39 230.91,-255.97 89.24,-72.8 191.78,-131.51 308.42,-175.34 115.85,-43.05 244.22,-64.97 385.12,-64.97 54.79,0 109.59,3.91 162.81,11.74 53.23,7.05 104.11,16.44 152.64,28.18 47.75,11.74 93.15,24.27 135.42,39.14 41.49,14.09 77.5,28.18 106.46,42.27l-61.84 301.36z"/>
  <path id="28" class="fil1" d="M84194.09 109382.64c0,136.2 -33.65,249.7 -100.97,341.29 -67.32,91.58 -164.38,165.95 -291.98,222.3 -127.59,57.15 -284.14,98.63 -468.88,125.25 -185.51,26.61 -396.08,43.05 -633.26,49.31 -1.56,17.22 -2.34,33.66 -3.13,50.88 -0.78,16.44 -1.56,35.23 -1.56,54.8 0,199.6 50.09,345.2 149.51,437.56 99.41,91.59 248.13,137.77 446.96,137.77 51.66,0 105.67,-3.13 161.25,-10.17 56.36,-6.27 111.93,-16.44 166.73,-28.97 54.79,-12.52 108.02,-27.39 158.9,-43.83 51.66,-15.66 97.85,-33.66 139.33,-53.23l-64.18 321.72c-78.28,34.44 -170.65,64.19 -276.32,88.45 -106.46,24.27 -221.52,36.01 -345.2,36.01 -156.56,0 -290.41,-21.14 -402.35,-64.19 -112.72,-43.05 -205.08,-102.54 -277.88,-180.03 -72.8,-76.72 -126.03,-169.08 -160.47,-274.76 -34.44,-106.45 -51.66,-223.09 -51.66,-349.9 0,-115.85 11.74,-231.7 34.44,-348.33 22.7,-115.85 57.14,-227 101.76,-331.89 45.4,-105.68 100.98,-203.52 167.51,-293.54 66.54,-90.02 143.25,-168.3 230.92,-234.83 86.89,-66.54 184.74,-118.98 291.97,-157.34 108.03,-38.35 224.66,-57.14 349.9,-57.14 90.02,0 176.13,10.96 258.32,32.88 81.41,22.7 153.42,56.35 216.04,103.32 63.41,46.18 112.72,104.89 149.51,176.12 36.79,71.24 54.79,154.21 54.79,250.49zm-1428.55 418.78c168.29,0 318.59,-8.61 451.66,-25.05 133.07,-17.22 245.79,-42.27 337.37,-76.71 91.59,-34.44 162.03,-78.27 210.57,-133.07 49.31,-54.01 73.58,-119.76 73.58,-197.26 0,-32.87 -7.05,-63.4 -20.35,-93.93 -14.09,-29.74 -34.45,-56.36 -61.84,-79.06 -28.18,-22.7 -61.84,-41.49 -102.55,-55.58 -40.7,-13.3 -86.88,-20.35 -138.55,-20.35 -86.88,0 -169.86,15.66 -248.92,47.75 -78.27,32.1 -150.29,78.28 -215.26,137.77 -64.97,59.49 -122.11,131.5 -171.43,216.04 -48.53,83.76 -86.88,176.91 -114.28,279.45z"/>
 </g>
</svg>